<svg width="20" height="20" viewBox="0 0 20 20" fill="none" xmlns="http://www.w3.org/2000/svg">
<path d="M18.1275 4.17761L16.4911 6.71437C16.9918 7.69976 17.2767 8.81952 17.2767 10.0004C17.2767 14.0193 14.016 17.2808 9.99817 17.2808C8.81764 17.2808 7.70224 16.9999 6.71712 16.499L4.18509 18.1359C5.82561 19.3086 7.82844 20.0049 10.0022 20.0049C15.5263 20.0049 20.0001 15.5259 20.0001 10.0044C19.996 7.83006 19.304 5.81857 18.1275 4.17761Z" fill="url(#paint0_radial_5_130340)"/>
<path d="M9.9978 15.0089C12.4606 15.0089 14.5082 13.2376 14.9357 10.9004C14.1581 10.7334 13.3481 10.6439 12.5176 10.6439C10.0222 10.6439 7.71409 11.4419 5.82932 12.7938C6.73303 14.1294 8.26365 15.0089 9.9978 15.0089Z" fill="url(#paint1_radial_5_130340)"/>
<path d="M12.4729 9.73172C13.3481 9.73172 14.1989 9.82537 15.0212 10.0045C15.0212 7.22753 12.7741 4.97987 9.99787 4.97987C7.2216 4.97987 4.97453 7.22753 4.97453 10.0045C4.97453 10.2326 4.99081 10.4565 5.0193 10.6764C3.75329 11.6373 3.15489 12.3988 3.13453 12.4232C2.86586 11.6658 2.71931 10.8515 2.71931 10.0045C2.71931 5.98562 5.98001 2.72407 9.99787 2.72407C11.1743 2.72407 12.2856 3.00502 13.2708 3.50179L15.8069 1.86083C14.1663 0.688142 12.1635 0 9.99787 0C4.47382 0 3.05176e-05 4.47903 3.05176e-05 10.0005C3.05176e-05 12.2237 0.7287 14.2759 1.95401 15.9372C2.42622 15.0821 3.00427 14.2881 3.66373 13.5755C3.66373 13.5755 4.64886 12.5454 5.40603 12.0282C7.3885 10.5827 9.83097 9.73172 12.4729 9.73172Z" fill="black"/>
<defs>
<radialGradient id="paint0_radial_5_130340" cx="0" cy="0" r="1" gradientUnits="userSpaceOnUse" gradientTransform="translate(18.1282 4.16784) scale(16.8241 16.8285)">
<stop offset="0.0986" stop-color="#26DB8D"/>
<stop offset="0.2628" stop-color="#23D29A"/>
<stop offset="0.5637" stop-color="#1ABBBB"/>
<stop offset="0.886" stop-color="#0E9DE5"/>
</radialGradient>
<radialGradient id="paint1_radial_5_130340" cx="0" cy="0" r="1" gradientUnits="userSpaceOnUse" gradientTransform="translate(18.1279 4.168) scale(16.8241 16.8285)">
<stop offset="0.0986" stop-color="#26DB8D"/>
<stop offset="0.2628" stop-color="#23D29A"/>
<stop offset="0.5637" stop-color="#1ABBBB"/>
<stop offset="0.886" stop-color="#0E9DE5"/>
</radialGradient>
</defs>
</svg>
